<?xml version="1.0" encoding="UTF-8" standalone="no"?>
<svg
   xmlns:dc="http://purl.org/dc/elements/1.1/"
   xmlns:cc="http://creativecommons.org/ns#"
   xmlns:rdf="http://www.w3.org/1999/02/22-rdf-syntax-ns#"
   xmlns:svg="http://www.w3.org/2000/svg"
   xmlns="http://www.w3.org/2000/svg"
   viewBox="0 0 605.33331 212"
   height="212"
   width="605.33331"
   xml:space="preserve"
   id="svg2"
   version="1.1"><metadata
     id="metadata8"><rdf:RDF><cc:Work
         rdf:about=""><dc:format>image/svg+xml</dc:format><dc:type
           rdf:resource="http://purl.org/dc/dcmitype/StillImage" /></cc:Work></rdf:RDF></metadata><defs
     id="defs6" /><g
     transform="matrix(1.3333333,0,0,-1.3333333,0,212)"
     id="g10"><g
       transform="scale(0.1)"
       id="g12"><path
         id="path14"
         style="fill:#11592e;fill-opacity:1;fill-rule:evenodd;stroke:none"
         d="m 3739.45,83.0117 c -74.65,0.3086 -145.82,11.3281 -213.47,33.0083 -9.69,14.332 -16.53,29.8 -20.51,46.48 -0.67,2.66 -1.17,5.352 -1.52,8.012 -18.33,2.648 -36.65,5.816 -55,9.488 0,-3.012 -0.16,-5.82 -0.47,-8.52 -1.02,-8.32 -2.86,-16.128 -5.51,-23.468 -35,15.968 -68.36,34.488 -100,55.508 -66.02,17.652 -130.16,39.14 -192.5,64.492 C 3302.46,99.6484 3498.79,11.9883 3739.45,5 c 240.67,6.9883 437,94.6484 589.03,263.012 -62.35,-25.352 -126.53,-46.84 -192.5,-64.492 C 4020.31,125.512 3888.12,85.3516 3739.45,83.0117" /><path
         id="path16"
         style="fill:#1e6633;fill-opacity:1;fill-rule:evenodd;stroke:none"
         d="m 3805.47,311.988 c 8.98,-1.988 18.01,-4.136 26.99,-6.476 10.35,1.636 13.99,8.668 11.02,20.968 1.32,2.7 3.16,4.032 5.47,4.032 -15.67,-1.332 -31.49,-2.352 -47.5,-3.012 -1.65,-2.66 -2.82,-5.66 -3.48,-8.98 -1.33,-5.36 1.17,-7.5 7.5,-6.532" /><path
         id="path18"
         style="fill:#1e6633;fill-opacity:1;fill-rule:evenodd;stroke:none"
         d="m 3857.97,331.48 c -2.35,-0.308 -4.69,-0.46 -6.99,-0.46 1.64,0 3.47,0 5.47,0 0.35,0.312 0.85,0.46 1.52,0.46" /><path
         id="path20"
         style="fill:#1e6633;fill-opacity:1;fill-rule:evenodd;stroke:none"
         d="m 4380.98,483.52 c -57.35,-115 -138.87,-208.168 -244.53,-279.54 66.01,17.348 130.19,38.68 192.5,64.032 73,81.328 127.34,174.648 163,280 -35.66,-23.364 -72.65,-44.852 -110.97,-64.492" /><path
         id="path22"
         style="fill:#1e6633;fill-opacity:1;fill-rule:evenodd;stroke:none"
         d="m 3206.95,322.5 c 0.35,0 1.02,-0.16 2,-0.512 2.03,0.352 4.02,0.512 6.01,0.512 6.68,-0.352 12.66,1.02 18.01,3.98 2.34,2.04 4.65,3.52 6.99,4.54 2.66,0 5.51,0 8.52,0 3.32,0.968 6.64,1.64 10,1.992 2.3,-0.352 4.33,-0.16 5.97,0.508 3.67,3.32 7.5,6.64 11.53,10 1.99,1.64 4.49,2.3 7.5,1.992 2.97,0.308 5.31,-0.352 6.99,-1.992 5.31,-3.68 10.98,-5.86 16.99,-6.532 8.01,0 11.49,-4.136 10.51,-12.5 2.34,0.672 4.14,1.532 5.51,2.5 1.99,1.332 4.33,1.844 6.99,1.532 3.98,-0.668 7.5,-0.36 10.51,0.968 -0.36,4.344 -3.01,7.66 -8.01,10 -0.35,0.672 -0.86,1.332 -1.52,1.992 -0.98,-0.308 -2,-0.46 -2.97,-0.46 -2.35,1.64 -3.01,3.82 -2.03,6.48 5.66,0.352 11.17,-0.352 16.52,-1.988 1.64,0 3.48,-0.16 5.51,-0.512 2.3,-1.02 4.8,-2.148 7.5,-3.52 3.32,-0.968 6.64,-2.14 10,-3.468 2.97,-1.68 5.82,-3.364 8.47,-5 1.33,-0.672 2.85,-1.172 4.5,-1.532 0.66,-0.968 1.52,-1.832 2.5,-2.5 16.67,-11.64 32.69,-24.492 48,-38.468 13.01,-16.684 19.85,-35.512 20.51,-56.532 1.02,-17.96 0.66,-35.968 -1.01,-53.98 18.35,-3.32 36.67,-6.48 55,-9.488 -2,17.648 -1.49,35.148 1.52,52.5 0.98,17.34 6.33,33.008 15.98,46.988 12.34,12.66 25.5,24.648 39.53,36.02 8.32,8.628 15.47,18.32 21.48,28.98 -6.99,1.02 -13.83,1.84 -20.51,2.5 -1.99,-3.668 -4.14,-7.148 -6.48,-10.512 -9.34,-15.656 -21.99,-27.5 -38.01,-35.508 -5.35,-2.96 -10.66,-3.82 -16.01,-2.5 -4.34,3.36 -6.14,7.86 -5.47,13.52 0.97,10.66 5.15,25 12.5,43.012 -9.34,1.636 -18.87,3.32 -28.52,5 -1.68,-1.68 -3.16,-3.172 -4.49,-4.492 -4.34,-1.68 -6.52,0.312 -6.52,5.968 0,0.352 0,0.672 0,1.024 -175.67,35.308 -336.14,100.308 -481.49,195 35.66,-105.352 90,-198.672 163.01,-280 62.34,-25.352 126.48,-46.684 192.5,-64.032 -50.35,33.68 -95.67,73.168 -136.02,118.52" /><path
         id="path24"
         style="fill:#1e6633;fill-opacity:1;fill-rule:evenodd;stroke:none"
         d="m 3894.45,323.012 c 7.35,-5 12.19,-12.852 14.5,-23.524 3,-3.316 6.83,-4.648 11.52,-3.976 5,-2.352 9.84,-5 14.49,-8.012 8.99,3.98 12.66,11.988 11.02,23.98 -4.69,5.36 -6.18,10.508 -4.53,15.508 5,5 10.85,6.844 17.5,5.512 5.66,-0.352 10,-2.5 13,-6.48 1.02,-8.008 4.69,-12.7 11.02,-14.032 6.99,2.66 13.48,2.352 19.49,-0.968 5,-4.032 10,-4.18 15,-0.508 3.01,3.668 6.68,6.328 11.02,8.008 8.98,0.312 18.16,0.312 27.5,0 -2.03,5.66 -5.2,10.46 -9.53,14.492 -5,7.648 -3.17,13.828 5.5,18.468 4.69,3.68 6.68,7.5 6.02,11.532 -58.67,-13.672 -118.67,-23.672 -180,-30 0.31,-3.364 0.98,-6.332 1.99,-9.032 4.34,-2.3 9.18,-2.648 14.49,-0.968" /><path
         id="path26"
         style="fill:#2b7338;fill-opacity:1;fill-rule:evenodd;stroke:none"
         d="m 4380.98,483.012 c 37.97,20 75,41.636 110.97,65 26.02,77.648 39.34,159.648 40,245.968 -25.97,-22.652 -53,-44.14 -80.97,-64.492 -9.03,-88.008 -32.35,-170.148 -70,-246.476" /><path
         id="path28"
         style="fill:#2b7338;fill-opacity:1;fill-rule:evenodd;stroke:none"
         d="m 3467.97,380 c 0,1.68 0,3.52 0,5.512 1.33,0 2.65,-0.16 3.98,-0.512 5.35,0 10.51,0 15.51,0 3.32,0.352 6.17,1.172 8.52,2.5 -2.35,-10.66 -4.53,-18.012 -6.53,-21.988 -2.65,-5 -5.82,-10 -9.49,-15 9.65,-1.992 19.34,-3.672 28.99,-5 6.01,14.328 11.52,28.008 16.52,40.968 4.33,-0.968 9.33,-1.32 15,-0.968 3.32,0.308 6.33,0.148 8.98,-0.512 2.66,-1.988 5,-4.34 7,-6.988 2.34,-2.66 4.68,-5.16 7.03,-7.5 1.99,-3.672 4.14,-7.192 6.48,-10.512 0.66,-0.66 1.68,-1.328 3.01,-1.988 -3.67,-6.992 -7.35,-13.832 -11.02,-20.512 7,-1.02 13.83,-1.84 20.51,-2.5 3.67,6.332 6.33,13.012 8.01,20 8.32,1.02 13.01,4.648 13.98,11.02 9.34,-9.34 20.35,-15 33.01,-17.04 5.35,-1.64 10.66,-1.64 16.02,0 3.98,2.352 7.65,5.2 10.97,8.52 3.36,3.012 6.68,6.02 10,8.98 4.03,2.04 8.17,4.032 12.5,6.02 9.34,6.332 19.34,10 30,11.02 4.69,0 9.03,-1.18 13.01,-3.52 3.67,-3.668 7.85,-5.512 12.5,-5.512 3.99,2.352 7.85,5.352 11.49,9.032 5.66,2.96 11.67,5.152 18,6.48 11.02,3.012 17.66,-0.82 20,-11.48 1.02,-6.372 2.5,-12.348 4.5,-18.008 3.35,-5.352 7.18,-10.352 11.52,-15 3.01,-3.364 3.01,-6.532 0,-9.492 -2.35,-2.7 -4.34,-5.508 -6.02,-8.52 15.67,0.66 31.53,1.68 47.5,3.012 0.67,0 1.33,0 2,0 2.34,0.308 4.68,0.508 7.03,0.508 5.97,3.32 11.64,5.152 16.99,5.46 1.33,-0.66 2.15,-1.832 2.5,-3.468 61.33,5.968 121.33,15.968 180,30 -0.67,2.648 -2.5,5.508 -5.51,8.468 -3.32,1.68 -5.66,4.18 -6.99,7.5 0.31,4.34 2.34,8.008 5.98,11.02 5.66,6.68 12.18,8.012 19.53,3.98 8.32,-4.64 15.31,-3.468 20.97,3.52 4.34,6.68 5.16,13.832 2.5,21.48 -1.33,4.032 -2.34,8.008 -3,12.04 0.35,6.32 -0.67,12.3 -2.97,17.96 -6.37,1.68 -12.86,3.008 -19.53,4.032 -1.65,8.668 2.69,15 13,18.976 4.69,6.684 3.36,12.852 -3.98,18.524 -6.02,7.34 -13.36,11.828 -21.99,13.468 -6.68,-3.98 -13.17,-5.308 -19.53,-3.98 -3.99,8.672 -1.33,15.512 8,20.512 9.03,3.976 12.5,10.308 10.51,18.976 -0.35,0.352 -0.66,0.672 -1.01,1.024 -100.67,-26.992 -205.32,-40.672 -313.99,-41.024 -309.34,6.332 -573.51,104.492 -792.5,294.492 0.66,-86.32 14.18,-168.32 40.51,-245.968 145.31,-94.692 305.82,-159.852 481.48,-195.512 -0.97,9.34 -1.48,18.52 -1.48,27.5" /><path
         id="path30"
         style="fill:#387f3a;fill-opacity:1;fill-rule:evenodd;stroke:none"
         d="m 4438.95,943.012 c 10,-46.992 15,-95.512 15,-145.512 0,-23.012 -1.14,-45.66 -3.48,-68.012 28.32,20.352 55.51,41.84 81.48,64.492 0,1.372 0,2.5 0,3.52 0,73.012 -9.33,143.012 -28,210 -9.65,-10.352 -19.5,-20.512 -29.5,-30.512 -11.33,-11.636 -23.16,-23.008 -35.5,-33.976" /><path
         id="path32"
         style="fill:#387f3a;fill-opacity:1;fill-rule:evenodd;stroke:none"
         d="m 4053.95,540.512 c -2.97,1.988 -6.33,3.668 -10,5 -4.65,2.648 -9.5,5 -14.5,6.988 -8.67,-0.352 -16.83,-0.512 -24.49,-0.512 -3.01,1.992 -5.82,4.492 -8.51,7.5 -3.33,2.352 -7,4.184 -10.98,5.512 -7.35,4.648 -9.49,11.328 -6.52,20 0.35,9.648 -2,18.672 -7,26.988 -12.34,-5.308 -20.15,-2.648 -23.47,8.012 0.97,10 -1.68,18.672 -8.01,26.02 -1.33,1.64 -2.85,3.16 -4.49,4.492 0.31,0.66 0.47,1.328 0.47,1.988 0.66,4.34 -0.67,8.16 -3.99,11.48 -3.67,4.032 -7.34,8.168 -11.01,12.5 -1.65,3.008 -3.48,5.86 -5.47,8.52 -0.67,0.66 -1.53,1.328 -2.5,1.988 -56.68,-9.648 -114.53,-14.488 -173.52,-14.488 -208.01,2.66 -393.98,56.84 -558.01,162.5 1.33,-1.988 2.5,-4.18 3.52,-6.48 1.64,-2.7 1.48,-4.848 -0.51,-6.532 -2.66,-1.636 -5.35,-3.468 -8.01,-5.508 -2.65,-1.64 -4.49,-4.14 -5.5,-7.5 0.66,-2.3 0.85,-4.492 0.5,-6.48 -5,-3.012 -10.5,-3.52 -16.48,-1.48 -1.68,0.308 -3.36,0.968 -5,1.992 -1.33,1.328 -2.5,2.5 -3.52,3.468 -3.32,-0.66 -6.33,-2.3 -8.98,-5 -5,4.032 -8.83,9.18 -11.52,15.508 -3.33,0.352 -6.14,-1.168 -8.48,-4.488 -3.67,-1.68 -7.35,-3.32 -11.02,-5 -4.65,-5.352 -4.33,-11.328 1.02,-18.012 -2.35,0.352 -4.49,-0.148 -6.52,-1.476 -0.98,-0.672 -1.84,-1.172 -2.5,-1.532 -0.98,-0.308 -1.84,-0.46 -2.5,-0.46 -0.98,-3.68 -1.49,-7.86 -1.49,-12.5 -2.34,-2.04 -5,-3.872 -8.01,-5.508 -2.34,-1.684 -4.65,-2.352 -6.99,-1.992 -2.66,2.96 -4.49,6.64 -5.51,10.968 -0.66,3.012 -0.82,6.024 -0.5,9.032 -5.32,1.64 -9.81,0.46 -13.48,-3.52 -0.35,-3.98 0.51,-7.852 2.5,-11.48 0.98,-2.04 0.31,-3.52 -1.99,-4.54 -1.37,-2.3 -2.7,-4.64 -4.03,-6.992 -2.65,-3.668 -5.97,-6.636 -10,-8.976 -3.67,-3.672 -7.65,-5.512 -11.99,-5.512 -2.66,1.02 -5.16,1.48 -7.5,1.48 -1.33,17.04 -1.99,34.032 -1.99,51.02 0.31,50 5.31,98.52 15,145.512 -11.99,10.968 -23.83,22.34 -35.51,33.976 -10,10 -19.65,20.16 -28.98,30.512 -18.68,-66.988 -28.17,-136.988 -28.52,-210 0,-1.02 0,-2.148 0,-3.52 218.99,-190 483.16,-288.16 792.5,-294.492 108.67,0 213.32,13.672 313.99,41.024" /><path
         id="path34"
         style="fill:#458a3f;fill-opacity:1;fill-rule:evenodd;stroke:none"
         d="m 3040.47,943.012 c 13.32,63.978 34.49,124.138 63.48,180.508 -18.64,20.66 -36.65,42.14 -53.99,64.49 -31.99,-56.33 -56.84,-116.53 -74.49,-180.51 9.65,-10.352 19.33,-20.512 28.98,-30.512 11.68,-11.328 23.67,-22.648 36.02,-33.976" /><path
         id="path36"
         style="fill:#458a3f;fill-opacity:1;fill-rule:evenodd;stroke:none"
         d="m 3909.45,690.512 c -0.66,3.316 -0.82,6.828 -0.5,10.508 -0.32,1.992 -0.98,3.32 -2,3.98 -1.64,1.02 -3,2.5 -3.98,4.488 -1.68,4.692 -1.17,8.672 1.48,11.992 1.33,0.668 2.85,1.02 4.5,1.02 1.67,0.66 3.67,1.172 6.01,1.48 0.66,4.032 0.66,8.008 0,12.04 -1.33,5 -4.34,7.3 -8.98,6.992 -4.34,0.308 -7.5,2.148 -9.53,5.508 -0.67,5.968 -3.48,9.64 -8.48,10.968 -6.02,-0.66 -8.83,1.84 -8.52,7.5 1.02,4.34 3.83,6.84 8.52,7.5 4.65,1.024 7.81,3.364 9.49,6.992 1.33,4.34 1.49,8.872 0.51,13.52 -4.69,0.66 -9.02,2.34 -13.01,5 -2.66,3.672 -4.49,7.852 -5.51,12.5 -4.33,2.66 -9.49,3.16 -15.5,1.48 -3.99,-0.308 -7.97,-0.152 -12,0.508 -3.32,1.024 -6.48,2.192 -9.49,3.524 -4.34,-0.352 -6.01,1.476 -5,5.508 5,5.968 10.51,11.48 16.49,16.48 2.03,5.352 0.66,9.648 -3.99,13.012 -21.01,-2.66 -42.34,-4.692 -63.98,-6.024 -2.03,-0.968 -3.87,-2.5 -5.51,-4.488 0.31,1.328 0.51,2.852 0.51,4.488 -13.68,-0.66 -27.35,-0.968 -41.02,-0.968 -95.35,0.308 -185.82,14.8 -271.48,43.468 -2.35,-3.316 -4.34,-6.828 -6.02,-10.508 -1.33,2.348 -2.85,4.692 -4.49,7.04 -6.02,-1.372 -12.35,-1.68 -19.02,-1.02 -0.98,7.66 -3.99,12.852 -8.99,15.512 -6.01,-3.364 -11.84,-3.524 -17.5,-0.512 -1.33,2.66 -3.32,4.84 -6.01,6.48 -3.64,1.02 -7.31,0.668 -10.98,-0.968 -6.68,-2.352 -11.17,-0.16 -13.52,6.476 -3.32,6.684 -8.47,9.852 -15.5,9.492 -3.64,-0.66 -7,-1.992 -10,-3.98 -2,-1.68 -3.99,-3.672 -5.98,-6.02 -3.36,-2.652 -7.35,-4.492 -11.99,-5.46 -3.36,-0.36 -6.02,-1.84 -8.01,-4.54 -1.02,-3.628 -1.68,-7.14 -1.99,-10.46 -3.01,-3.36 -7.19,-4.54 -12.5,-3.52 0,4.648 -0.86,8.98 -2.5,13.012 -0.36,1.328 -1.18,2.34 -2.5,3.008 -0.67,0 -1.53,0.152 -2.5,0.46 -1.02,1.02 -2.19,2.192 -3.52,3.52 0.66,-2.34 0.35,-4.488 -1.01,-6.48 -2,-1.372 -3.48,-2.7 -4.5,-4.032 -0.31,-2.34 -0.66,-4.488 -0.97,-6.476 -2.03,-3.012 -5,-4.852 -9.03,-5.512 -5.66,-1.68 -10,0 -13,5 -2.97,5.66 -7.31,9.648 -12.97,11.988 -6.02,0 -12.19,-0.968 -18.52,-3.008 -2.34,0.36 -4.65,0.86 -6.99,1.532 -4.34,-0.352 -6.17,-2.852 -5.51,-7.5 1.02,-6.024 0.16,-11.332 -2.5,-16.024 -4.34,-1.636 -9.34,-2.148 -15,-1.476 -2.34,-0.672 -3.83,-2.192 -4.49,-4.492 -0.35,-3.008 0.31,-5.508 1.99,-7.5 1.33,-3.008 1.17,-5.86 -0.51,-8.52 -2.34,-0.66 -5,-0.82 -8,-0.512 -1.65,0.672 -3.33,1.172 -5,1.532 -2.97,0 -5.47,-1.18 -7.5,-3.52 -1.65,-1.02 -3.33,-1.84 -5,-2.5 -1.65,0 -3.17,0 -4.5,0 -3,-1.68 -3.98,-4.34 -3,-8.012 0.35,-2.648 1.36,-5 3,-6.988 163.67,-105.66 349.69,-159.84 558.01,-162.5 58.99,0 116.68,4.84 173.01,14.488 -1.33,1.024 -2.5,2.192 -3.52,3.524" /><path
         id="path38"
         style="fill:#458a3f;fill-opacity:1;fill-rule:evenodd;stroke:none"
         d="m 4438.95,943.012 c 12.03,11.328 23.86,22.648 35.5,33.976 10,10 19.85,20.16 29.5,30.512 -17.97,63.98 -42.97,124.18 -75,180.51 -17,-22.35 -35,-43.83 -53.99,-64.49 29.34,-56.37 50.66,-116.53 63.99,-180.508" /><path
         id="path40"
         style="fill:#54973f;fill-opacity:1;fill-rule:evenodd;stroke:none"
         d="m 3843.95,856.02 c -7.66,4.332 -15.47,6.32 -23.48,5.968 -3.67,-1.328 -6.99,-3.468 -10,-6.476 -2.35,-2.66 -5.67,-3.832 -10,-3.524 -5,-0.66 -9.85,-2.34 -14.49,-5 21.64,1.332 42.97,3.364 63.98,6.024 -1.99,1.328 -3.98,2.34 -6.01,3.008" /><path
         id="path42"
         style="fill:#54973f;fill-opacity:1;fill-rule:evenodd;stroke:none"
         d="m 3204.96,1271.02 c -16.68,20.66 -32.34,42.14 -46.99,64.49 -41.68,-45 -77.66,-94.18 -108.01,-147.5 16.99,-22.35 35,-43.67 53.99,-64.03 27.69,53.36 61.36,102.35 101.01,147.04" /><path
         id="path44"
         style="fill:#54973f;fill-opacity:1;fill-rule:evenodd;stroke:none"
         d="m 3781.45,847.5 c 2.03,7.34 0.85,13.16 -3.48,17.5 -8.36,0.352 -15.86,2.852 -22.5,7.5 -1.33,3.672 -3.17,6.988 -5.51,10 -4.65,2.66 -9.34,3.012 -13.98,1.02 -4.69,-2.7 -9.53,-4.032 -14.53,-4.032 -4.34,2.66 -7,6.532 -7.97,11.532 -7.35,7.96 -16.18,8.468 -26.53,1.48 -10.31,-0.66 -15.5,4.488 -15.5,15.512 4.33,8.316 6.83,16.476 7.5,24.488 -7.97,3.32 -16.84,5.66 -26.49,6.988 -1.99,4.032 -3.98,7.66 -6.01,11.024 -4.65,3.008 -9.65,3.316 -15,0.968 -10.98,-3.628 -21.33,-8.628 -30.98,-15 -6.02,-5.308 -13.01,-6.992 -21.02,-5 -8,4.032 -16.33,6.84 -25,8.52 -10.66,2.34 -20.66,1.328 -30,-3.012 -5.66,-8.008 -6.48,-17.148 -2.5,-27.5 -3,-8.976 -8.98,-15.508 -18,-19.488 -7.66,-0.66 -15.32,1.02 -22.97,5 -5.67,0.352 -9.85,-1.48 -12.5,-5.512 85.66,-28.316 176.13,-42.808 271.48,-43.468 13.67,0.308 27.5,0.82 41.49,1.48" /><path
         id="path46"
         style="fill:#54973f;fill-opacity:1;fill-rule:evenodd;stroke:none"
         d="m 4374.96,1123.98 c 18.99,20.36 36.99,41.68 53.99,64.03 -30.32,53.32 -66.33,102.5 -107.97,147.5 -14.34,-22.35 -30,-43.83 -47.03,-64.49 39.68,-44.69 73.35,-93.68 101.01,-147.04" /><path
         id="path48"
         style="fill:#61a142;fill-opacity:1;fill-rule:evenodd;stroke:none"
         d="m 3334.96,1386.02 c -16.33,20.31 -31.17,41.83 -44.49,64.49 -48.36,-33.67 -92.5,-71.99 -132.5,-115 14.65,-22.35 30.31,-43.83 46.99,-64.49 38.67,43.63 81.99,81.99 130,115" /><path
         id="path50"
         style="fill:#61a142;fill-opacity:1;fill-rule:evenodd;stroke:none"
         d="m 4274.45,1271.02 c 16.68,20.66 32.35,42.14 47,64.49 -40,43.01 -84.15,81.33 -132.5,115 -13.33,-22.66 -28.17,-44.18 -44.5,-64.49 48.01,-33.01 91.33,-71.37 130,-115" /><path
         id="path52"
         style="fill:#6eae42;fill-opacity:1;fill-rule:evenodd;stroke:none"
         d="m 4143.95,1386.02 c 16.36,20.31 31.17,41.64 44.53,63.98 -47.7,33.01 -98.52,60.51 -152.5,82.5 -14.34,-23.32 -31.18,-44.84 -50.51,-64.49 56.64,-21.02 109.49,-48.36 158.48,-81.99" /><path
         id="path54"
         style="fill:#6eae42;fill-opacity:1;fill-rule:evenodd;stroke:none"
         d="m 3493.95,1468.01 c -19.34,19.65 -36.14,41.17 -50.47,64.49 -54.03,-21.99 -104.85,-49.49 -152.5,-82.5 13.32,-22.34 28.16,-43.67 44.49,-63.98 48.98,33.63 101.83,60.97 158.48,81.99" /><path
         id="path56"
         style="fill:#7dba3f;fill-opacity:1;fill-rule:evenodd;stroke:none"
         d="m 3739.96,1511.99 c 86.68,-0.31 168.52,-14.84 245.51,-43.47 19.33,19.33 36.17,40.66 50.51,63.98 -58.01,23.67 -118.68,40.16 -182.03,49.49 -31.65,-27.65 -69.65,-41.99 -113.99,-43.01 -44.65,1.02 -82.85,15.36 -114.49,43.01 -63.36,-9.33 -124.02,-25.82 -181.99,-49.49 14.33,-23.32 31.13,-44.65 50.47,-63.98 77.03,28.63 159.02,43.16 246.01,43.47" /><path
         id="path58"
         style="fill:#8cc53f;fill-opacity:1;fill-rule:evenodd;stroke:none"
         d="m 3853.48,1581.99 c -37.35,5.35 -75.36,8.01 -114.03,8.01 -38.67,0 -76.64,-2.66 -113.98,-8.01 31.33,-28.01 69.33,-42.34 113.98,-43.01 44.69,0.67 82.66,15 114.03,43.01" /><path
         id="path60"
         style="fill:#125b2f;fill-opacity:1;fill-rule:nonzero;stroke:none"
         d="m 44.0195,953.91 v -120 H 197.461 V 795 H 44.0195 V 625 H -0.0390625 V 992.809 H 212.93 V 953.91 Z M 379.18,885.621 c 18.941,0 35,-2.262 48.121,-6.711 13.211,-4.379 23.437,-10.789 30.629,-19.219 7.191,-8.441 12.269,-17.89 15.308,-28.281 3.133,-10.32 4.692,-22.191 4.692,-35.629 V 625 h -30 l -9.84,23.281 c -20.86,-18.98 -44.809,-28.441 -71.879,-28.441 -24.18,0 -44.652,7.269 -61.41,21.879 -16.68,14.57 -25,31.601 -25,51.09 0,10.312 1.879,19.57 5.629,27.812 3.832,8.328 9.3,15.238 16.41,20.789 7.18,5.5 15.351,10.192 24.531,14.059 9.141,3.941 19.758,6.953 31.867,9.062 12.192,2.071 24.383,3.52 36.563,4.379 12.269,0.82 25.789,1.25 40.469,1.25 v 20.149 c 0,5.941 -0.231,11.019 -0.622,15.312 -0.429,4.258 -1.878,9.418 -4.378,15.469 -2.418,6.019 -5.7,10.98 -9.84,14.851 -4.059,3.938 -10.27,7.34 -18.59,10.149 -8.25,2.89 -18.051,4.379 -29.379,4.379 -17.621,0 -40.43,-3.91 -68.441,-11.719 l -7.969,31.09 c 28.328,10.512 56.019,15.781 83.129,15.781 z m 56.09,-147.5 h -15.782 c -9.797,0 -18.359,-0.23 -25.617,-0.621 -7.191,-0.309 -15.711,-1.328 -25.473,-2.969 -9.808,-1.562 -17.808,-3.871 -24.058,-6.871 -6.18,-2.93 -11.41,-7.191 -15.789,-12.82 -4.371,-5.539 -6.563,-12.18 -6.563,-20 0,-10.86 5.473,-20.461 16.41,-28.899 10.942,-8.441 23.981,-12.66 39.223,-12.66 22.18,0 41.399,8.668 57.649,26.098 z" /><path
         id="path62"
         style="fill:#125b2f;fill-opacity:1;fill-rule:nonzero;stroke:none"
         d="m 608.672,861.559 c 21.558,16.019 45.348,24.062 71.406,24.062 17.891,0 34.223,-3.391 48.902,-10.152 l -12.96,-33.91 c -13.442,5.203 -27.43,7.82 -41.879,7.82 -21.563,0 -41.84,-5.938 -60.782,-17.82 V 625 h -42.5 v 255.621 h 29.84 z" /><path
         id="path64"
         style="fill:#125b2f;fill-opacity:1;fill-rule:nonzero;stroke:none"
         d="m 880.078,846.559 c -14.808,0 -34.687,-6.559 -59.687,-19.68 V 625 h -42.5 v 255.621 h 29.839 l 9.071,-21.09 c 30.82,17.379 57.539,26.09 80.148,26.09 26.02,0 46.492,-9.492 61.41,-28.43 33.75,18.75 63.981,28.118 90.781,28.118 12.89,0 24.26,-1.789 34.06,-5.309 9.89,-3.551 17.89,-8.398 24.07,-14.531 6.13,-6.059 11.13,-13.707 15,-22.969 3.82,-9.301 6.48,-19.059 7.96,-29.379 1.45,-10.23 2.19,-21.793 2.19,-34.68 V 625 h -42.34 v 156.25 c 0,3.129 -0.12,6.02 -0.31,8.75 -0.24,2.699 -0.71,6.41 -1.41,11.09 -0.63,4.769 -1.64,8.988 -2.97,12.66 -1.37,3.75 -3.4,7.73 -6.09,12.031 -2.74,4.379 -6.02,7.969 -9.85,10.778 -3.75,2.82 -8.55,5.16 -14.37,7.031 -5.86,1.961 -12.42,2.969 -19.69,2.969 -15.86,0 -36.8,-6.719 -62.812,-20.149 2.383,-10.238 3.594,-26.801 3.594,-49.691 V 625 h -42.5 v 157.34 c 0,4.461 -0.152,8.75 -0.473,12.82 -0.308,4.059 -1.519,9.41 -3.59,16.09 -2.109,6.762 -4.839,12.5 -8.281,17.191 -3.437,4.758 -8.75,8.981 -15.937,12.649 -7.192,3.64 -15.621,5.469 -25.313,5.469 z" /><path
         id="path66"
         style="fill:#125b2f;fill-opacity:1;fill-rule:nonzero;stroke:none"
         d="m 1255.59,992.809 h 55.62 L 1511.52,685 v 307.809 h 44.07 V 625 h -55.63 L 1299.65,933.281 V 625 h -44.06 z" /><path
         id="path68"
         style="fill:#125b2f;fill-opacity:1;fill-rule:nonzero;stroke:none"
         d="m 1741.45,885.621 c 18.94,0 35,-2.262 48.12,-6.711 13.2,-4.379 23.44,-10.789 30.63,-19.219 7.18,-8.441 12.26,-17.89 15.31,-28.281 3.12,-10.32 4.69,-22.191 4.69,-35.629 V 625 h -30 l -9.85,23.281 c -20.86,-18.98 -44.8,-28.441 -71.87,-28.441 -24.18,0 -44.65,7.269 -61.41,21.879 -16.68,14.57 -25,31.601 -25,51.09 0,10.312 1.88,19.57 5.63,27.812 3.82,8.328 9.29,15.238 16.4,20.789 7.19,5.5 15.35,10.192 24.53,14.059 9.14,3.941 19.77,6.953 31.88,9.062 12.19,2.071 24.37,3.52 36.56,4.379 12.27,0.82 25.78,1.25 40.47,1.25 v 20.149 c 0,5.941 -0.24,11.019 -0.63,15.312 -0.43,4.258 -1.87,9.418 -4.37,15.469 -2.42,6.019 -5.7,10.98 -9.84,14.851 -4.07,3.938 -10.28,7.34 -18.6,10.149 -8.24,2.89 -18.05,4.379 -29.37,4.379 -17.62,0 -40.43,-3.91 -68.44,-11.719 l -7.97,31.09 c 28.32,10.512 56.02,15.781 83.13,15.781 z m 56.09,-147.5 h -15.78 c -9.81,0 -18.36,-0.23 -25.63,-0.621 -7.18,-0.309 -15.7,-1.328 -25.47,-2.969 -9.8,-1.562 -17.81,-3.871 -24.06,-6.871 -6.17,-2.93 -11.4,-7.191 -15.78,-12.82 -4.37,-5.539 -6.56,-12.18 -6.56,-20 0,-10.86 5.47,-20.461 16.4,-28.899 10.94,-8.441 23.99,-12.66 39.22,-12.66 22.19,0 41.41,8.668 57.66,26.098 z" /><path
         id="path70"
         style="fill:#125b2f;fill-opacity:1;fill-rule:nonzero;stroke:none"
         d="m 2069.06,629.379 c -25,-6.328 -44.53,-9.539 -58.59,-9.539 -13.99,0 -25.78,2.269 -35.47,6.719 -9.61,4.461 -16.88,10.82 -21.88,19.062 -5,8.328 -8.59,17.27 -10.78,26.879 -2.18,9.57 -3.28,20.551 -3.28,32.969 V 847.34 h -34.37 v 33.281 h 34.37 v 73.289 h 42.5 v -73.289 h 77.82 V 847.34 h -77.82 V 705.941 c 0,-35.32 13.95,-52.972 41.88,-52.972 5,0 18.2,1.801 39.68,5.472 z" /><path
         id="path72"
         style="fill:#125b2f;fill-opacity:1;fill-rule:nonzero;stroke:none"
         d="m 2130.04,992.809 h 50.3125 V 943.9106 H 2130.04 Z m 3.91,-112.188 h 42.5 V 625 h -42.5 z" /><path
         id="path74"
         style="fill:#125b2f;fill-opacity:1;fill-rule:nonzero;stroke:none"
         d="m 2381.13,885.621 c 35.39,0 64.53,-11.32 87.35,-33.902 22.81,-22.617 34.22,-53.867 34.22,-93.75 0,-42.188 -11.68,-75.778 -35,-100.778 -23.36,-24.921 -53.6,-37.351 -90.79,-37.351 -35.31,0 -64.21,11.64 -86.71,35 -22.43,23.441 -33.6,55.16 -33.6,95.16 0,41.25 11.41,74.141 34.22,98.75 22.89,24.57 53.01,36.871 90.31,36.871 z m -3.59,-36.242 c -21.25,0 -39.84,-8.25 -55.78,-24.688 -15.86,-16.371 -23.75,-38.871 -23.75,-67.5 0,-28.441 7.73,-52.421 23.28,-71.882 15.51,-19.489 35.62,-29.219 60.31,-29.219 22.81,0 41.76,8.601 56.88,25.789 15.19,17.262 22.81,39.84 22.81,67.652 0,15.821 -2.46,30.199 -7.34,43.129 -4.93,12.891 -11.37,23.43 -19.38,31.559 -8.05,8.121 -16.99,14.301 -26.87,18.59 -9.81,4.382 -19.85,6.57 -30.16,6.57 z" /><path
         id="path76"
         style="fill:#125b2f;fill-opacity:1;fill-rule:nonzero;stroke:none"
         d="m 2583.2,880.621 h 29.85 l 9.22,-21.711 c 33,18 63.04,27.031 90.15,27.031 13.95,0 26.1,-2.269 36.41,-6.722 10.39,-4.379 18.44,-9.918 24.06,-16.559 5.7,-6.57 10.23,-14.93 13.59,-25 3.32,-10.121 5.47,-19.769 6.41,-28.91 1.02,-9.18 1.56,-19.609 1.56,-31.25 V 625 h -42.5 v 155.309 c 0,44.769 -19.33,67.191 -57.97,67.191 -20,0 -42.77,-6.641 -68.28,-19.84 V 625 h -42.5 z" /></g></g></svg>